<?xml version="1.0" encoding="UTF-8" standalone="no"?>
<!-- Created with Inkscape (http://www.inkscape.org/) -->

<svg
   xmlns:dc="http://purl.org/dc/elements/1.1/"
   xmlns:cc="http://creativecommons.org/ns#"
   xmlns:rdf="http://www.w3.org/1999/02/22-rdf-syntax-ns#"
   xmlns:svg="http://www.w3.org/2000/svg"
   xmlns="http://www.w3.org/2000/svg"
   xmlns:xlink="http://www.w3.org/1999/xlink"
   xmlns:sodipodi="http://sodipodi.sourceforge.net/DTD/sodipodi-0.dtd"
   xmlns:inkscape="http://www.inkscape.org/namespaces/inkscape"
   width="744.09448819"
   height="1052.3622047"
   id="svg2"
   version="1.1"
   inkscape:version="0.47 r22583"
   sodipodi:docname="New document 1">
  <defs
     id="defs4">
    <inkscape:perspective
       sodipodi:type="inkscape:persp3d"
       inkscape:vp_x="0 : 526.18109 : 1"
       inkscape:vp_y="0 : 1000 : 0"
       inkscape:vp_z="744.09448 : 526.18109 : 1"
       inkscape:persp3d-origin="372.04724 : 350.78739 : 1"
       id="perspective10" />
    <inkscape:perspective
       id="perspective2944"
       inkscape:persp3d-origin="99.212502 : 75 : 1"
       inkscape:vp_z="198.425 : 112.5 : 1"
       inkscape:vp_y="0 : 1000 : 0"
       inkscape:vp_x="0 : 112.5 : 1"
       sodipodi:type="inkscape:persp3d" />
    <inkscape:perspective
       id="perspective3131"
       inkscape:persp3d-origin="99.212502 : 75 : 1"
       inkscape:vp_z="198.425 : 112.5 : 1"
       inkscape:vp_y="0 : 1000 : 0"
       inkscape:vp_x="0 : 112.5 : 1"
       sodipodi:type="inkscape:persp3d" />
    <linearGradient
       gradientUnits="userSpaceOnUse"
       y2="397.10336"
       x2="209.00391"
       y1="293.05765"
       x1="141.52344"
       id="linearGradient4874"
       xlink:href="#linearGradient4689"
       inkscape:collect="always" />
    <linearGradient
       gradientUnits="userSpaceOnUse"
       y2="399.35718"
       x2="212.85779"
       y1="275.88898"
       x1="116.88896"
       id="linearGradient4866"
       xlink:href="#linearGradient4671"
       inkscape:collect="always" />
    <linearGradient
       y2="114.39767"
       x2="135.66525"
       y1="20.603781"
       x1="26.648937"
       gradientTransform="matrix(0.562541,0,0,0.567972,45.390903,477.57703)"
       gradientUnits="userSpaceOnUse"
       id="linearGradient4080"
       xlink:href="#linearGradient4689"
       inkscape:collect="always" />
    <linearGradient
       y2="137.27299"
       x2="112.03144"
       y1="192.35176"
       x1="150.96111"
       gradientTransform="matrix(0.562541,0,0,0.567972,45.390903,477.57703)"
       gradientUnits="userSpaceOnUse"
       id="linearGradient4077"
       xlink:href="#linearGradient4671"
       inkscape:collect="always" />
    <radialGradient
       r="29.036913"
       fy="132.28575"
       fx="61.518883"
       cy="132.28575"
       cx="61.518883"
       gradientTransform="matrix(2.382716e-8,-0.296405,1.43676,4.683673e-7,-128.544,150.5202)"
       gradientUnits="userSpaceOnUse"
       id="radialGradient4072"
       xlink:href="#linearGradient2795"
       inkscape:collect="always" />
    <inkscape:perspective
       sodipodi:type="inkscape:persp3d"
       inkscape:vp_x="0 : 526.18109 : 1"
       inkscape:vp_y="0 : 1000 : 0"
       inkscape:vp_z="744.09448 : 526.18109 : 1"
       inkscape:persp3d-origin="372.04724 : 350.78739 : 1"
       id="perspective10-9" />
    <radialGradient
       gradientUnits="userSpaceOnUse"
       gradientTransform="matrix(1,0,0,0.177966,0,108.7434)"
       r="29.036913"
       fy="132.28575"
       fx="61.518883"
       cy="132.28575"
       cx="61.518883"
       id="radialGradient2801"
       xlink:href="#linearGradient2795"
       inkscape:collect="always" />
    <linearGradient
       y2="76.313133"
       x2="26.670298"
       y1="76.176224"
       x1="172.94208"
       gradientTransform="matrix(0.562541,0,0,0.567972,-11.5974,-7.60954)"
       gradientUnits="userSpaceOnUse"
       id="linearGradient2258"
       xlink:href="#linearGradient4689"
       inkscape:collect="always" />
    <linearGradient
       y2="144.75717"
       x2="-65.308502"
       y1="144.75717"
       x1="224.23996"
       gradientTransform="matrix(0.562541,0,0,0.567972,-11.5974,-7.60954)"
       gradientUnits="userSpaceOnUse"
       id="linearGradient2255"
       xlink:href="#linearGradient4671"
       inkscape:collect="always" />
    <linearGradient
       y2="144.75717"
       x2="-65.308502"
       y1="144.75717"
       x1="224.23996"
       gradientTransform="translate(100.2702,99.61116)"
       gradientUnits="userSpaceOnUse"
       id="linearGradient2250"
       xlink:href="#linearGradient4671"
       inkscape:collect="always" />
    <linearGradient
       y2="76.313133"
       x2="26.670298"
       y1="77.475983"
       x1="172.94208"
       gradientTransform="translate(100.2702,99.61116)"
       gradientUnits="userSpaceOnUse"
       id="linearGradient2248"
       xlink:href="#linearGradient4689"
       inkscape:collect="always" />
    <linearGradient
       y2="144.75717"
       x2="-65.308502"
       y1="144.75717"
       x1="224.23996"
       gradientTransform="translate(100.2702,99.61116)"
       gradientUnits="userSpaceOnUse"
       id="linearGradient2589"
       xlink:href="#linearGradient4671"
       inkscape:collect="always" />
    <linearGradient
       y2="76.313133"
       x2="26.670298"
       y1="77.475983"
       x1="172.94208"
       gradientTransform="translate(100.2702,99.61116)"
       gradientUnits="userSpaceOnUse"
       id="linearGradient2587"
       xlink:href="#linearGradient4689"
       inkscape:collect="always" />
    <linearGradient
       gradientTransform="translate(100.2702,99.61116)"
       gradientUnits="userSpaceOnUse"
       xlink:href="#linearGradient4689"
       id="linearGradient2990"
       y2="76.313133"
       x2="26.670298"
       y1="77.475983"
       x1="172.94208" />
    <linearGradient
       gradientTransform="translate(100.2702,99.61116)"
       gradientUnits="userSpaceOnUse"
       xlink:href="#linearGradient4671"
       id="linearGradient2987"
       y2="144.75717"
       x2="-65.308502"
       y1="144.75717"
       x1="224.23996" />
    <linearGradient
       id="linearGradient4689">
      <stop
         id="stop4691"
         offset="0"
         style="stop-color:#5a9fd4;stop-opacity:1;" />
      <stop
         id="stop4693"
         offset="1"
         style="stop-color:#306998;stop-opacity:1;" />
    </linearGradient>
    <linearGradient
       id="linearGradient4671">
      <stop
         id="stop4673"
         offset="0"
         style="stop-color:#ffd43b;stop-opacity:1;" />
      <stop
         id="stop4675"
         offset="1"
         style="stop-color:#ffe873;stop-opacity:1" />
    </linearGradient>
    <linearGradient
       id="linearGradient3236">
      <stop
         id="stop3244"
         offset="0"
         style="stop-color:#f4f4f4;stop-opacity:1" />
      <stop
         id="stop3240"
         offset="1"
         style="stop-color:white;stop-opacity:1" />
    </linearGradient>
    <linearGradient
       id="linearGradient3676">
      <stop
         id="stop3678"
         offset="0"
         style="stop-color:#b2b2b2;stop-opacity:0.5;" />
      <stop
         id="stop3680"
         offset="1"
         style="stop-color:#b3b3b3;stop-opacity:0;" />
    </linearGradient>
    <linearGradient
       id="linearGradient2787">
      <stop
         id="stop2789"
         offset="0"
         style="stop-color:#7f7f7f;stop-opacity:0.5;" />
      <stop
         id="stop2791"
         offset="1"
         style="stop-color:#7f7f7f;stop-opacity:0;" />
    </linearGradient>
    <linearGradient
       id="linearGradient2795">
      <stop
         id="stop2797"
         offset="0"
         style="stop-color:#b8b8b8;stop-opacity:0.49803922;" />
      <stop
         id="stop2799"
         offset="1"
         style="stop-color:#7f7f7f;stop-opacity:0;" />
    </linearGradient>
    <inkscape:perspective
       id="perspective3040"
       inkscape:persp3d-origin="243.02499 : 47.924998 : 1"
       inkscape:vp_z="486.04999 : 71.887497 : 1"
       inkscape:vp_y="0 : 1000 : 0"
       inkscape:vp_x="0 : 71.887497 : 1"
       sodipodi:type="inkscape:persp3d" />
    <inkscape:perspective
       id="perspective10-3"
       inkscape:persp3d-origin="372.04724 : 350.78739 : 1"
       inkscape:vp_z="744.09448 : 526.18109 : 1"
       inkscape:vp_y="0 : 1000 : 0"
       inkscape:vp_x="0 : 526.18109 : 1"
       sodipodi:type="inkscape:persp3d" />
    <linearGradient
       inkscape:collect="always"
       xlink:href="#linearGradient4689"
       id="linearGradient3531"
       gradientUnits="userSpaceOnUse"
       x1="141.52344"
       y1="293.05765"
       x2="209.00391"
       y2="397.10336"
       gradientTransform="translate(459.8321,-159.21108)" />
    <linearGradient
       inkscape:collect="always"
       xlink:href="#linearGradient4671"
       id="linearGradient3535"
       gradientUnits="userSpaceOnUse"
       x1="116.88896"
       y1="275.88898"
       x2="212.85779"
       y2="399.35718"
       gradientTransform="translate(459.8321,-159.21108)" />
    <linearGradient
       inkscape:collect="always"
       xlink:href="#linearGradient4689"
       id="linearGradient3545"
       gradientUnits="userSpaceOnUse"
       gradientTransform="matrix(0.83431425,0,0,0.84236903,139.83262,218.08755)"
       x1="26.648937"
       y1="20.603781"
       x2="135.66525"
       y2="114.39767" />
    <linearGradient
       inkscape:collect="always"
       xlink:href="#linearGradient4671"
       id="linearGradient3547"
       gradientUnits="userSpaceOnUse"
       gradientTransform="matrix(0.83431425,0,0,0.84236903,139.83262,218.08755)"
       x1="150.96111"
       y1="192.35176"
       x2="112.03144"
       y2="137.27299" />
    <radialGradient
       inkscape:collect="always"
       xlink:href="#linearGradient2795"
       id="radialGradient3549"
       gradientUnits="userSpaceOnUse"
       gradientTransform="matrix(2.382716e-8,-0.296405,1.43676,4.683673e-7,-128.544,150.5202)"
       cx="61.518883"
       cy="132.28575"
       fx="61.518883"
       fy="132.28575"
       r="29.036913" />
    <filter
       inkscape:collect="always"
       id="filter4359"
       x="-0.48259412"
       width="1.9651882"
       y="-2.7446312"
       height="6.4892624">
      <feGaussianBlur
         inkscape:collect="always"
         stdDeviation="19.685129"
         id="feGaussianBlur4361" />
    </filter>
    <filter
       inkscape:collect="always"
       id="filter4363"
       x="-0.44165168"
       width="1.8833034"
       y="-0.43495021"
       height="1.8699004">
      <feGaussianBlur
         inkscape:collect="always"
         stdDeviation="15.174658"
         id="feGaussianBlur4365" />
    </filter>
    <filter
       inkscape:collect="always"
       id="filter4367"
       x="-0.44255076"
       width="1.8851015"
       y="-0.43828537"
       height="1.8765707">
      <feGaussianBlur
         inkscape:collect="always"
         stdDeviation="15.174658"
         id="feGaussianBlur4369" />
    </filter>
  </defs>
  <sodipodi:namedview
     id="base"
     pagecolor="#ffffff"
     bordercolor="#666666"
     borderopacity="1.0"
     inkscape:pageopacity="0.0"
     inkscape:pageshadow="2"
     inkscape:zoom="0.98994949"
     inkscape:cx="450.65847"
     inkscape:cy="680.63431"
     inkscape:document-units="px"
     inkscape:current-layer="layer1"
     showgrid="false"
     inkscape:window-width="1440"
     inkscape:window-height="825"
     inkscape:window-x="0"
     inkscape:window-y="24"
     inkscape:window-maximized="1">
    <inkscape:grid
       type="xygrid"
       id="grid3165" />
  </sodipodi:namedview>
  <metadata
     id="metadata7">
    <rdf:RDF>
      <cc:Work
         rdf:about="">
        <dc:format>image/svg+xml</dc:format>
        <dc:type
           rdf:resource="http://purl.org/dc/dcmitype/StillImage" />
        <dc:title></dc:title>
      </cc:Work>
    </rdf:RDF>
  </metadata>
  <g
     inkscape:label="Layer 1"
     inkscape:groupmode="layer"
     id="layer1">
    <rect
       style="fill:#ffffff;fill-opacity:1;stroke:none"
       id="rect4371"
       width="315.1676"
       height="315.1676"
       x="84.852814"
       y="173.52946"
       inkscape:export-filename="/home/jared/clone/css/logo.png"
       inkscape:export-xdpi="35.695293"
       inkscape:export-ydpi="35.695293" />
    <path
       d="m 365.86248,241.90148 c -0.37207,-0.52008 -0.55946,-1.03473 -0.6097,-1.52494 -0.60428,-0.24986 -1.15016,-0.5649 -1.62408,-0.95191 -4.51102,-1.0972 -9.21486,-2.66152 -11.94564,-5.88795 -0.54996,-0.65044 -0.98313,-1.57247 -1.01844,-2.47956 -0.52008,-0.0489 -1.04153,-0.0883 -1.56025,-0.14666 -2.18354,-0.24714 -3.87008,-1.97849 -3.27395,-4.29782 0.0964,-0.37479 0.21047,-0.72378 0.33405,-1.05918 -1.18954,-0.0951 -2.39402,-0.29467 -3.62022,-0.64909 -1.601,-0.46169 -2.50944,-1.9106 -2.45241,-3.4206 -1.96356,-3.14224 -1.86171,-8.46529 -4.46892,-10.2754 -0.64094,-0.4454 -1.05104,-0.97363 -1.30768,-1.52631 -0.57848,-0.48885 -1.17461,-0.96548 -1.81962,-1.40952 -2.38451,-1.64173 -4.86815,-3.29568 -6.62123,-5.64488 -1.87393,-2.51216 -3.49936,-5.30269 -4.63323,-8.24395 -0.23492,-0.22134 -0.47934,-0.43317 -0.70476,-0.66402 -3.7628,-3.85514 -6.06312,-8.88624 -9.36423,-13.14197 -0.25257,-0.32454 -0.41824,-0.66267 -0.54317,-1.00486 H 115.49967 V 470.13152 H 376.26145 V 251.33768 c -4.70248,-1.38372 -7.51067,-5.40724 -10.39897,-9.4362 z"
       id="path8"
       style="fill:url(#SVGID_1_);stroke:#a3a2a2;stroke-width:1.35792208;stroke-miterlimit:10" />
    <rect
       width="71.149689"
       height="29.231989"
       x="313.79703"
       y="455.87198"
       id="rect15"
       style="fill:url(#SVGID_2_)" />
    <path
       d="m 310.19854,179.5715 c 0.97363,12.63003 2.65745,9.48237 3.58899,38.04898 0.20369,6.22335 -2.58277,28.48106 -4.10093,32.0877 4.75273,-2.03689 18.81537,-1.67296 32.27917,-2.26366 3.55368,-0.15616 26.36134,1.8848 34.29432,3.93662 -11.53419,-11.54913 -65.43012,-71.81915 -66.06155,-71.80964 z"
       id="path372"
       style="fill:url(#SVGID_3_);stroke:#c7c6c6;stroke-width:0.67896104;stroke-miterlimit:10" />
    <polygon
       points="198.43,225.003 146.03,225.003 146.03,223.982 197.53,223.982 197.53,203.473 198.43,203.473 "
       id="polygon374"
       style="fill:#764828"
       transform="matrix(1.3579221,0,0,1.3579221,115.49967,179.5715)" />
    <polygon
       points="146.027,203.479 198.427,203.465 198.428,204.484 146.928,204.499 146.933,225.009 146.033,225.009 "
       id="polygon376"
       style="fill:#fcd4ba"
       transform="matrix(1.3579221,0,0,1.3579221,115.49967,179.5715)" />
    <rect
       style="fill:#ff6600;fill-opacity:1;stroke:none"
       id="rect3163"
       width="68.731712"
       height="26.536646"
       x="315"
       y="457.36218" />
    <g
       id="g378"
       transform="matrix(1.3579221,0,0,1.3579221,115.49967,179.5715)"
       style="fill:#ffffff">
	<path
   d="m 167.994,221.532 c -0.65,0.336 -2.016,0.672 -3.737,0.672 -3.989,0 -6.971,-2.52 -6.971,-7.182 0,-4.451 3.003,-7.432 7.391,-7.432 1.743,0 2.876,0.377 3.359,0.629 l -0.462,1.491 c -0.672,-0.336 -1.658,-0.588 -2.834,-0.588 -3.318,0 -5.522,2.12 -5.522,5.837 0,3.485 1.995,5.689 5.417,5.689 1.134,0 2.268,-0.23 3.002,-0.588 l 0.357,1.472 z"
   id="path380"
   style="fill:#ffffff" />

	<path
   d="m 170.074,219.747 c 0.819,0.525 1.995,0.924 3.255,0.924 1.868,0 2.96,-0.986 2.96,-2.414 0,-1.303 -0.756,-2.079 -2.666,-2.793 -2.31,-0.84 -3.737,-2.058 -3.737,-4.031 0,-2.205 1.827,-3.842 4.577,-3.842 1.428,0 2.498,0.336 3.107,0.692 l -0.504,1.491 c -0.441,-0.273 -1.386,-0.672 -2.666,-0.672 -1.932,0 -2.667,1.154 -2.667,2.12 0,1.323 0.86,1.974 2.813,2.729 2.394,0.924 3.59,2.078 3.59,4.157 0,2.184 -1.596,4.095 -4.934,4.095 -1.365,0 -2.855,-0.42 -3.611,-0.924 l 0.483,-1.532 z"
   id="path382"
   style="fill:#ffffff" />

	<path
   d="m 180.427,219.747 c 0.818,0.525 1.994,0.924 3.254,0.924 1.869,0 2.961,-0.986 2.961,-2.414 0,-1.303 -0.756,-2.079 -2.667,-2.793 -2.31,-0.84 -3.737,-2.058 -3.737,-4.031 0,-2.205 1.826,-3.842 4.577,-3.842 1.428,0 2.499,0.336 3.107,0.692 l -0.504,1.491 c -0.44,-0.273 -1.386,-0.672 -2.667,-0.672 -1.932,0 -2.666,1.154 -2.666,2.12 0,1.323 0.861,1.974 2.813,2.729 2.394,0.924 3.591,2.078 3.591,4.157 0,2.184 -1.596,4.095 -4.935,4.095 -1.364,0 -2.855,-0.42 -3.611,-0.924 l 0.484,-1.532 z"
   id="path384"
   style="fill:#ffffff" />

</g>
    <text
       sodipodi:linespacing="125%"
       x="130.16394"
       y="231.78275"
       id="text3198"
       xml:space="preserve"
       style="font-size:12.22129917px;font-style:normal;font-variant:normal;font-weight:normal;font-stretch:normal;text-align:start;line-height:125%;writing-mode:lr-tb;text-anchor:start;fill:#000000;fill-opacity:1;stroke:none;font-family:Monospace;-inkscape-font-specification:Monospace"><tspan
         x="130.16394"
         y="231.78275"
         id="tspan3206">body {</tspan><tspan
         x="130.16394"
         y="247.05937"
         id="tspan3251">    margin: 4px;</tspan><tspan
         x="130.16394"
         y="262.336"
         id="tspan3253">    border: dotted #c0c000 3px; </tspan><tspan
         x="130.16394"
         y="277.61261"
         id="tspan3243">    font: 75%/1 sans-serif;</tspan><tspan
         x="130.16394"
         y="292.88922"
         id="tspan3235">    color: #000;</tspan><tspan
         x="130.16394"
         y="308.16586"
         id="tspan3245">    background-color: #fff;</tspan><tspan
         x="130.16394"
         y="323.44247"
         id="tspan3249">}</tspan><tspan
         x="130.16394"
         y="338.71912"
         id="tspan3239" /><tspan
         x="130.16394"
         y="353.99573"
         id="tspan3241">h1 {</tspan><tspan
         x="130.16394"
         y="369.27237"
         id="tspan3282">    padding: 5px;</tspan><tspan
         x="130.16394"
         y="384.54898"
         id="tspan3210">    margin: 10px;</tspan><tspan
         x="130.16394"
         y="399.82562"
         id="tspan3218">    border: solid #c0c0c0 1px;</tspan><tspan
         x="130.16394"
         y="415.10223"
         id="tspan3288">    color: #000;</tspan><tspan
         x="130.16394"
         y="430.37885"
         id="tspan3401">    background-color: #fff;</tspan><tspan
         x="130.16394"
         y="445.65549"
         id="tspan3220">}</tspan><tspan
         x="130.16394"
         y="460.9321"
         id="tspan3222" /><tspan
         x="130.16394"
         y="476.20874"
         id="tspan3226" /></text>
    <text
       xml:space="preserve"
       style="font-size:163.24264526px;font-style:normal;font-weight:normal;fill:url(#linearGradient3535);fill-opacity:1;stroke:none;font-family:Bitstream Vera Sans"
       x="567.55463"
       y="237.83455"
       id="text2820"
       inkscape:export-filename="/home/jared/Pictures/Art/ccss.png"
       inkscape:export-xdpi="90"
       inkscape:export-ydpi="90"><tspan
         sodipodi:role="line"
         id="tspan2822"
         x="567.55463"
         y="237.83455"
         style="fill:url(#linearGradient3535);fill-opacity:1">C</tspan></text>
    <text
       xml:space="preserve"
       style="font-size:40px;font-style:normal;font-variant:normal;font-weight:normal;font-stretch:normal;fill:url(#linearGradient3531);fill-opacity:1;stroke:none;font-family:Georgia;-inkscape-font-specification:Georgia"
       x="599.83209"
       y="193.15111"
       id="text2816"
       inkscape:export-filename="/home/jared/Pictures/Art/ccss.png"
       inkscape:export-xdpi="90"
       inkscape:export-ydpi="90"><tspan
         sodipodi:role="line"
         id="tspan2818"
         x="599.83209"
         y="193.15111"
         style="fill:url(#linearGradient3531);fill-opacity:1">CSS</tspan></text>
    <path
       id="path46"
       style="fill:#646464;fill-opacity:1"
       d="m 699.23619,385.60063 c 0,-14.56215 -4.15226,-22.03817 -12.45678,-22.44755 -3.30427,-0.15595 -6.53055,0.37039 -9.66912,1.58878 -2.505,0.89673 -4.19124,1.78372 -5.07823,2.68045 l 0,34.75812 c 5.31216,3.33351 10.02976,4.88329 14.14303,4.63962 8.70415,-0.57508 13.0611,-7.64172 13.0611,-21.21942 z m 10.24419,0.60432 c 0,7.39804 -1.73498,13.53871 -5.22444,18.422 -3.88909,5.5266 -9.27923,8.37275 -16.17042,8.52871 -5.1952,0.1657 -10.54635,-1.46207 -16.05346,-4.87355 l 0,31.59032 -8.90884,-3.17755 0,-70.12057 c 1.46206,-1.79346 3.34325,-3.3335 5.62407,-4.63961 5.30242,-3.08983 11.74524,-4.67861 19.32848,-4.75658 l 0.12671,0.12671 c 6.93018,-0.0877 12.27159,2.75843 16.02422,8.5287 3.4992,5.29267 5.25368,12.07665 5.25368,20.37142 z" />
    <path
       id="path48"
       style="fill:#646464;fill-opacity:1"
       d="m 763.92762,406.93701 c 0,9.92254 -0.9942,16.79424 -2.9826,20.6151 -1.99816,3.82086 -5.79952,6.8717 -11.41385,9.14277 -4.55189,1.79346 -9.47417,2.76817 -14.75709,2.93387 l -1.47181,-5.61432 c 5.37064,-0.73103 9.15252,-1.46207 11.34561,-2.1931 4.31796,-1.46206 7.28108,-3.70389 8.90884,-6.706 1.30611,-2.44652 1.94942,-7.11537 1.94942,-14.02606 l 0,-2.3198 c -6.09193,2.76817 -12.47628,4.14251 -19.15303,4.14251 -4.38619,0 -8.25579,-1.37434 -11.58929,-4.14251 -3.74289,-3.01186 -5.61433,-6.83272 -5.61433,-11.46258 l 0,-37.07793 8.90884,-3.05084 0,37.3216 c 0,3.98656 1.28662,7.0569 3.85985,9.21101 2.57323,2.1541 5.90674,3.18729 9.99077,3.10932 4.08403,-0.0877 8.46047,-1.66676 13.10983,-4.75658 l 0,-43.54025 8.90884,0 0,48.41379 z" />
    <path
       id="path50"
       style="fill:#646464;fill-opacity:1"
       d="m 798.70524,412.6683 c -1.06243,0.0877 -2.03714,0.12671 -2.93387,0.12671 -5.03925,0 -8.96733,-1.19889 -11.77449,-3.60642 -2.79742,-2.40753 -4.20099,-5.73129 -4.20099,-9.97127 l 0,-35.08953 -6.10168,0 0,-5.60457 6.10168,0 0,-14.88381 8.89909,-3.16781 0,18.05162 10.01026,0 0,5.60457 -10.01026,0 0,34.84585 c 0,3.34325 0.89673,5.71179 2.6902,7.09588 1.54004,1.14041 3.98656,1.79347 7.32006,1.95917 l 0,4.63961 z" />
    <path
       id="path52"
       style="fill:#646464;fill-opacity:1"
       d="m 852.64563,411.93727 -8.90884,0 0,-34.38773 c 0,-3.49921 -0.81876,-6.51106 -2.44651,-9.02581 -1.88119,-2.84615 -4.49342,-4.26923 -7.84641,-4.26923 -4.08404,0 -9.19152,2.15411 -15.32242,6.46233 l 0,41.22044 -8.90885,0 0,-82.19721 8.90885,-2.80716 0,37.43857 c 5.6923,-4.14251 11.91093,-6.21864 18.66566,-6.21864 4.7176,0 8.53846,1.58877 11.46258,4.75658 2.93388,3.1678 4.39594,7.11537 4.39594,11.83296 l 0,37.1949 0,0 z" />
    <path
       id="path54"
       style="fill:#646464;fill-opacity:1"
       d="m 899.99699,384.19705 c 0,-5.59483 -1.06242,-10.21495 -3.17755,-13.87011 -2.51474,-4.45442 -6.42332,-6.80347 -11.70625,-7.04715 -9.76658,0.56534 -14.64012,7.56375 -14.64012,20.97574 0,6.15042 1.01369,11.28713 3.06057,15.41015 2.61223,5.25368 6.53056,7.84641 11.755,7.75869 9.80557,-0.078 14.70835,-7.81717 14.70835,-23.22732 z m 9.75685,0.0585 c 0,7.96338 -2.03714,14.5914 -6.10168,19.88407 -4.47391,5.92623 -10.65357,8.89909 -18.53897,8.89909 -7.81716,0 -13.90909,-2.97286 -18.30503,-8.89909 -3.98656,-5.29267 -5.97497,-11.92069 -5.97497,-19.88407 0,-7.48576 2.15411,-13.78238 6.46232,-18.90935 4.5519,-5.43888 10.53661,-8.16806 17.93464,-8.16806 7.39805,0 13.42174,2.72918 18.06137,8.16806 4.3082,5.12697 6.46232,11.42359 6.46232,18.90935 z" />
    <path
       id="path56"
       style="fill:#646464;fill-opacity:1"
       d="m 960.82858,411.93727 -8.90884,0 0,-36.33715 c 0,-3.98656 -1.19889,-7.09588 -3.59667,-9.33772 -2.39779,-2.23208 -5.59483,-3.31401 -9.58139,-3.22628 -4.23023,0.078 -8.25579,1.46206 -12.07664,4.14251 l 0,44.75864 -8.90884,0 0,-45.86006 c 5.12697,-3.73313 9.84456,-6.16991 14.15276,-7.31032 4.06455,-1.06243 7.65148,-1.58877 10.74131,-1.58877 2.11512,0 4.10352,0.20469 5.97496,0.61406 3.49921,0.80901 6.34535,2.31006 8.53845,4.51291 2.44651,2.43677 3.6649,5.3609 3.6649,8.78212 l 0,40.85006 z" />
    <path
       style="fill:#000000;fill-opacity:1;filter:url(#filter4367)"
       d="m 246.83333,265.41949 c -4.58365,0.0213 -8.96094,0.41222 -12.8125,1.09375 -11.34622,2.00451 -13.40625,6.2001 -13.40625,13.9375 l 0,10.21875 26.8125,0 0,3.40625 -26.8125,0 -10.0625,0 c -7.79246,0 -14.61576,4.68372 -16.75,13.59375 -2.46182,10.21297 -2.57102,16.58603 0,27.25 1.90593,7.93785 6.45754,13.59375 14.25,13.59375 l 9.21875,0 0,-12.25 c 0,-8.8499 7.65714,-16.65625 16.75,-16.65625 l 26.78125,0 c 7.45495,0 13.40625,-6.13816 13.40625,-13.625 l 0,-25.53125 c 0,-7.26634 -6.12998,-12.72477 -13.40625,-13.9375 -4.60599,-0.76672 -9.3851,-1.11505 -13.96875,-1.09375 z m -14.5,8.21875 c 2.76955,0 5.03125,2.29865 5.03125,5.125 0,2.81634 -2.2617,5.09375 -5.03125,5.09375 -2.77948,0 -5.03125,-2.27741 -5.03125,-5.09375 0,-2.82635 2.25177,-5.125 5.03125,-5.125 z"
       id="path1948"
       transform="matrix(1.4831172,0,0,1.4831172,-119.5692,-161.19965)" />
    <path
       style="fill:#000000;fill-opacity:1;filter:url(#filter4363)"
       d="m 277.55208,294.07574 0,11.90625 c 0,9.23076 -7.8259,17 -16.75,17 l -26.78125,0 c -7.33583,0 -13.40625,6.27849 -13.40625,13.625 l 0,25.53125 c 0,7.26634 6.31859,11.54032 13.40625,13.625 8.48733,2.49561 16.62623,2.94663 26.78125,0 6.75015,-1.95439 13.40625,-5.88761 13.40625,-13.625 l 0,-10.21875 -26.78125,0 0,-3.40625 26.78125,0 13.40625,0 c 7.79246,0 10.69625,-5.4354 13.40624,-13.59375 2.79933,-8.39888 2.68022,-16.47577 0,-27.25 -1.92578,-7.75744 -5.60387,-13.59375 -13.40624,-13.59375 l -10.0625,0 z m -15.0625,64.65625 c 2.77948,1e-5 5.03125,2.27742 5.03125,5.09375 0,2.82635 -2.25178,5.125 -5.03125,5.125 -2.76955,0 -5.03125,-2.29865 -5.03125,-5.125 0,-2.81633 2.26169,-5.09375 5.03125,-5.09375 z"
       id="path1950"
       transform="matrix(1.4831172,0,0,1.4831172,-119.5692,-161.19965)" />
    <path
       d="m 978.17715,350.58065 1.56195,0 0,-9.79624 3.70013,0 0,-1.16766 -8.96221,0 0,1.16766 3.70013,0 0,9.79624 m 6.64702,0 1.33447,0 0,-8.94703 2.89641,8.94591 1.48569,0 3.01816,-8.91558 0,8.9167 1.45579,0 0,-10.9639 -1.92589,0 -3.29831,9.39286 -2.81297,-9.39286 -2.15335,0 0,10.9639"
       style="font-size:15.16445827px;font-style:normal;font-weight:normal;line-height:125%;fill:#646464;fill-opacity:1;stroke:none;font-family:Bitstream Vera Sans"
       id="text3004"
       sodipodi:nodetypes="ccccccccccccccccccccccc" />
    <path
       sodipodi:type="arc"
       style="opacity:0.44382019;fill:#000000;fill-opacity:1;fill-rule:nonzero;stroke:none;filter:url(#filter4359)"
       id="path1894"
       sodipodi:cx="61.518883"
       sodipodi:cy="132.28575"
       sodipodi:rx="48.948284"
       sodipodi:ry="8.6066771"
       d="m 110.46717,132.28575 a 48.948284,8.6066771 0 1 1 -97.896571,0 48.948284,8.6066771 0 1 1 97.896571,0 z"
       transform="matrix(1.088697,0,0,1.2006189,180.86993,263.01765)" />
    <path
       id="path3539"
       d="m 243.5172,235.4449 c -6.79809,0.0316 -13.29012,0.61137 -19.00243,1.62216 -16.82777,2.97292 -19.88305,9.19547 -19.88305,20.67095 l 0,15.15559 39.76609,0 0,5.05188 -39.76609,0 -14.92386,0 c -11.55714,0 -21.67689,6.9465 -24.84222,20.16112 -3.65116,15.14703 -3.81312,24.59903 0,40.41495 2.82672,11.77276 9.5773,20.16112 21.13442,20.16112 l 13.6725,0 0,-18.16819 c 0,-13.12544 11.35643,-24.70317 24.84221,-24.70317 l 39.71973,0 c 11.05656,0 19.88304,-9.10361 19.88304,-20.20747 l 0,-37.86583 c 0,-10.77684 -9.09148,-18.87233 -19.88304,-20.67095 -6.83122,-1.13713 -13.9192,-1.65375 -20.7173,-1.62216 z m -21.5052,12.18937 c 4.10757,0 7.46194,3.40917 7.46194,7.60097 0,4.17697 -3.35437,7.55463 -7.46194,7.55463 -4.12229,0 -7.46193,-3.37766 -7.46193,-7.55463 0,-4.1918 3.33964,-7.60097 7.46193,-7.60097 z"
       style="fill:url(#linearGradient3545);fill-opacity:1" />
    <path
       id="path3541"
       d="m 289.07671,277.94548 0,17.65836 c 0,13.6903 -11.60673,25.21299 -24.84221,25.21299 l -39.71973,0 c -10.8799,0 -19.88305,9.31174 -19.88305,20.20748 l 0,37.86583 c 0,10.77683 9.37121,17.11564 19.88305,20.20748 12.5877,3.70128 24.65865,4.37019 39.71973,0 10.01127,-2.8986 19.88304,-8.73203 19.88304,-20.20748 l 0,-15.1556 -39.71973,0 0,-5.05187 39.71973,0 19.88304,0 c 11.55713,0 15.86379,-8.06134 19.88302,-20.16112 4.15174,-12.45653 3.97508,-24.4355 0,-40.41495 -2.85615,-11.50519 -8.31119,-20.16112 -19.88302,-20.16112 l -14.92387,0 z m -22.33945,95.89279 c 4.12229,10e-6 7.46193,3.37768 7.46193,7.55463 0,4.19181 -3.33965,7.60097 -7.46193,7.60097 -4.10757,0 -7.46193,-3.40916 -7.46193,-7.60097 0,-4.17695 3.35435,-7.55463 7.46193,-7.55463 z"
       style="fill:url(#linearGradient3547);fill-opacity:1" />
    <path
       transform="matrix(1.088697,0,0,1.2006189,177.87358,266.01399)"
       d="m 110.46717,132.28575 a 48.948284,8.6066771 0 1 1 -97.896571,0 48.948284,8.6066771 0 1 1 97.896571,0 z"
       sodipodi:ry="8.6066771"
       sodipodi:rx="48.948284"
       sodipodi:cy="132.28575"
       sodipodi:cx="61.518883"
       id="path3543"
       style="opacity:0.44382019;fill:url(#radialGradient3549);fill-opacity:1;fill-rule:nonzero;stroke:none"
       sodipodi:type="arc" />
  </g>
</svg>
